<mxfile host="app.diagrams.net" modified="2024-02-03T20:48:31.050Z" agent="Mozilla/5.0 (Windows NT 10.0; Win64; x64) AppleWebKit/537.36 (KHTML, like Gecko) Chrome/120.0.0.0 YaBrowser/24.1.0.0 Safari/537.36" etag="YODgZ1k0vvziwRxzjj9Y" version="23.1.1" type="device">
  <diagram id="C5RBs43oDa-KdzZeNtuy" name="Page-1">
    <mxGraphModel dx="3599" dy="1566" grid="1" gridSize="10" guides="1" tooltips="1" connect="1" arrows="1" fold="1" page="1" pageScale="1" pageWidth="827" pageHeight="1169" math="0" shadow="0">
      <root>
        <mxCell id="WIyWlLk6GJQsqaUBKTNV-0" />
        <mxCell id="WIyWlLk6GJQsqaUBKTNV-1" parent="WIyWlLk6GJQsqaUBKTNV-0" />
        <mxCell id="gt4P2ikg-Aa12p5pUFLy-42" value="" style="rounded=0;whiteSpace=wrap;html=1;fillColor=none;strokeColor=#6C36EB;strokeWidth=3;" parent="WIyWlLk6GJQsqaUBKTNV-1" vertex="1">
          <mxGeometry x="-10" y="310" width="150" height="80" as="geometry" />
        </mxCell>
        <mxCell id="nbsSTsRb8DVpEYrsytEX-7" value="" style="rounded=0;whiteSpace=wrap;html=1;fillColor=none;strokeColor=#6C36EB;strokeWidth=3;" vertex="1" parent="WIyWlLk6GJQsqaUBKTNV-1">
          <mxGeometry x="80" y="565" width="190" height="80" as="geometry" />
        </mxCell>
        <mxCell id="gt4P2ikg-Aa12p5pUFLy-32" value="Post" style="rounded=0;whiteSpace=wrap;html=1;" parent="WIyWlLk6GJQsqaUBKTNV-1" vertex="1">
          <mxGeometry x="320" y="520" width="110" height="50" as="geometry" />
        </mxCell>
        <mxCell id="gt4P2ikg-Aa12p5pUFLy-31" value="Post" style="rounded=0;whiteSpace=wrap;html=1;" parent="WIyWlLk6GJQsqaUBKTNV-1" vertex="1">
          <mxGeometry x="354" y="480" width="110" height="50" as="geometry" />
        </mxCell>
        <mxCell id="gt4P2ikg-Aa12p5pUFLy-19" value="Message" style="rounded=0;whiteSpace=wrap;html=1;" parent="WIyWlLk6GJQsqaUBKTNV-1" vertex="1">
          <mxGeometry x="-80" y="500" width="120" height="60" as="geometry" />
        </mxCell>
        <mxCell id="gt4P2ikg-Aa12p5pUFLy-17" value="Message" style="rounded=0;whiteSpace=wrap;html=1;" parent="WIyWlLk6GJQsqaUBKTNV-1" vertex="1">
          <mxGeometry x="-40" y="460" width="120" height="60" as="geometry" />
        </mxCell>
        <mxCell id="gt4P2ikg-Aa12p5pUFLy-15" value="Dialog" style="rounded=0;whiteSpace=wrap;html=1;" parent="WIyWlLk6GJQsqaUBKTNV-1" vertex="1">
          <mxGeometry x="-250" y="390" width="120" height="60" as="geometry" />
        </mxCell>
        <mxCell id="gt4P2ikg-Aa12p5pUFLy-14" value="Dialog" style="rounded=0;whiteSpace=wrap;html=1;" parent="WIyWlLk6GJQsqaUBKTNV-1" vertex="1">
          <mxGeometry x="-210" y="350" width="120" height="60" as="geometry" />
        </mxCell>
        <mxCell id="gt4P2ikg-Aa12p5pUFLy-1" value="main" style="rounded=0;whiteSpace=wrap;html=1;" parent="WIyWlLk6GJQsqaUBKTNV-1" vertex="1">
          <mxGeometry x="350" y="30" width="96" height="40" as="geometry" />
        </mxCell>
        <mxCell id="gt4P2ikg-Aa12p5pUFLy-2" value="App" style="rounded=0;whiteSpace=wrap;html=1;" parent="WIyWlLk6GJQsqaUBKTNV-1" vertex="1">
          <mxGeometry x="350" y="100" width="96" height="40" as="geometry" />
        </mxCell>
        <mxCell id="gt4P2ikg-Aa12p5pUFLy-3" value="" style="endArrow=none;html=1;rounded=0;entryX=0.5;entryY=1;entryDx=0;entryDy=0;exitX=0.5;exitY=0;exitDx=0;exitDy=0;" parent="WIyWlLk6GJQsqaUBKTNV-1" source="gt4P2ikg-Aa12p5pUFLy-2" target="gt4P2ikg-Aa12p5pUFLy-1" edge="1">
          <mxGeometry width="50" height="50" relative="1" as="geometry">
            <mxPoint x="400" y="400" as="sourcePoint" />
            <mxPoint x="450" y="350" as="targetPoint" />
          </mxGeometry>
        </mxCell>
        <mxCell id="gt4P2ikg-Aa12p5pUFLy-5" value="Messages&lt;br&gt;" style="rounded=0;whiteSpace=wrap;html=1;" parent="WIyWlLk6GJQsqaUBKTNV-1" vertex="1">
          <mxGeometry x="-20" y="180" width="120" height="60" as="geometry" />
        </mxCell>
        <mxCell id="gt4P2ikg-Aa12p5pUFLy-6" value="" style="endArrow=none;html=1;rounded=0;entryX=0.5;entryY=1;entryDx=0;entryDy=0;exitX=0.442;exitY=-0.067;exitDx=0;exitDy=0;exitPerimeter=0;" parent="WIyWlLk6GJQsqaUBKTNV-1" source="gt4P2ikg-Aa12p5pUFLy-5" target="gt4P2ikg-Aa12p5pUFLy-2" edge="1">
          <mxGeometry width="50" height="50" relative="1" as="geometry">
            <mxPoint x="400" y="400" as="sourcePoint" />
            <mxPoint x="450" y="350" as="targetPoint" />
          </mxGeometry>
        </mxCell>
        <mxCell id="gt4P2ikg-Aa12p5pUFLy-7" value="MessagessChat&lt;br&gt;(&lt;i&gt;чат с сообщениями&lt;/i&gt;)" style="rounded=0;whiteSpace=wrap;html=1;" parent="WIyWlLk6GJQsqaUBKTNV-1" vertex="1">
          <mxGeometry y="320" width="130" height="60" as="geometry" />
        </mxCell>
        <mxCell id="gt4P2ikg-Aa12p5pUFLy-10" value="" style="endArrow=none;html=1;rounded=0;entryX=0.417;entryY=1;entryDx=0;entryDy=0;exitX=0.5;exitY=0;exitDx=0;exitDy=0;entryPerimeter=0;" parent="WIyWlLk6GJQsqaUBKTNV-1" source="gt4P2ikg-Aa12p5pUFLy-8" target="gt4P2ikg-Aa12p5pUFLy-5" edge="1">
          <mxGeometry width="50" height="50" relative="1" as="geometry">
            <mxPoint x="130" y="420" as="sourcePoint" />
            <mxPoint x="-30" y="280" as="targetPoint" />
          </mxGeometry>
        </mxCell>
        <mxCell id="gt4P2ikg-Aa12p5pUFLy-8" value="Dialog&lt;br&gt;(&lt;i&gt;диалог&lt;/i&gt;)" style="rounded=0;whiteSpace=wrap;html=1;" parent="WIyWlLk6GJQsqaUBKTNV-1" vertex="1">
          <mxGeometry x="-180" y="310" width="120" height="60" as="geometry" />
        </mxCell>
        <mxCell id="gt4P2ikg-Aa12p5pUFLy-11" value="" style="endArrow=none;html=1;rounded=0;exitX=0.433;exitY=0;exitDx=0;exitDy=0;exitPerimeter=0;entryX=0.408;entryY=1.05;entryDx=0;entryDy=0;entryPerimeter=0;" parent="WIyWlLk6GJQsqaUBKTNV-1" source="gt4P2ikg-Aa12p5pUFLy-7" target="gt4P2ikg-Aa12p5pUFLy-5" edge="1">
          <mxGeometry width="50" height="50" relative="1" as="geometry">
            <mxPoint x="130" y="420" as="sourcePoint" />
            <mxPoint x="-30" y="280" as="targetPoint" />
          </mxGeometry>
        </mxCell>
        <mxCell id="gt4P2ikg-Aa12p5pUFLy-12" value="&lt;font style=&quot;font-size: 16px;&quot;&gt;/messages&lt;b&gt;:id&lt;/b&gt;&lt;/font&gt;" style="text;html=1;strokeColor=none;fillColor=none;align=center;verticalAlign=middle;whiteSpace=wrap;rounded=0;rotation=35;" parent="WIyWlLk6GJQsqaUBKTNV-1" vertex="1">
          <mxGeometry x="70" y="250" width="60" height="30" as="geometry" />
        </mxCell>
        <mxCell id="gt4P2ikg-Aa12p5pUFLy-13" value="&lt;font style=&quot;font-size: 16px;&quot;&gt;/messages&lt;/font&gt;" style="text;html=1;strokeColor=none;fillColor=none;align=center;verticalAlign=middle;whiteSpace=wrap;rounded=0;rotation=-5;" parent="WIyWlLk6GJQsqaUBKTNV-1" vertex="1">
          <mxGeometry x="30" y="140" width="60" height="30" as="geometry" />
        </mxCell>
        <mxCell id="gt4P2ikg-Aa12p5pUFLy-16" value="Message&lt;br&gt;(&lt;i&gt;сообщение&lt;/i&gt;)" style="rounded=0;whiteSpace=wrap;html=1;" parent="WIyWlLk6GJQsqaUBKTNV-1" vertex="1">
          <mxGeometry x="-10" y="420" width="120" height="60" as="geometry" />
        </mxCell>
        <mxCell id="gt4P2ikg-Aa12p5pUFLy-20" value="" style="endArrow=none;html=1;rounded=0;entryX=0.417;entryY=1.017;entryDx=0;entryDy=0;entryPerimeter=0;exitX=0.5;exitY=0;exitDx=0;exitDy=0;" parent="WIyWlLk6GJQsqaUBKTNV-1" source="gt4P2ikg-Aa12p5pUFLy-16" target="gt4P2ikg-Aa12p5pUFLy-7" edge="1">
          <mxGeometry width="50" height="50" relative="1" as="geometry">
            <mxPoint x="130" y="410" as="sourcePoint" />
            <mxPoint x="180" y="360" as="targetPoint" />
          </mxGeometry>
        </mxCell>
        <mxCell id="gt4P2ikg-Aa12p5pUFLy-21" value="Profile" style="rounded=0;whiteSpace=wrap;html=1;" parent="WIyWlLk6GJQsqaUBKTNV-1" vertex="1">
          <mxGeometry x="315" y="205" width="120" height="60" as="geometry" />
        </mxCell>
        <mxCell id="gt4P2ikg-Aa12p5pUFLy-22" value="" style="endArrow=none;html=1;rounded=0;exitX=0.5;exitY=0;exitDx=0;exitDy=0;" parent="WIyWlLk6GJQsqaUBKTNV-1" source="gt4P2ikg-Aa12p5pUFLy-21" target="gt4P2ikg-Aa12p5pUFLy-2" edge="1">
          <mxGeometry width="50" height="50" relative="1" as="geometry">
            <mxPoint x="400" y="390" as="sourcePoint" />
            <mxPoint x="450" y="340" as="targetPoint" />
          </mxGeometry>
        </mxCell>
        <mxCell id="gt4P2ikg-Aa12p5pUFLy-24" value="ProfileInfo" style="rounded=0;whiteSpace=wrap;html=1;" parent="WIyWlLk6GJQsqaUBKTNV-1" vertex="1">
          <mxGeometry x="190" y="370" width="120" height="60" as="geometry" />
        </mxCell>
        <mxCell id="gt4P2ikg-Aa12p5pUFLy-25" value="" style="endArrow=none;html=1;rounded=0;exitX=0.5;exitY=0;exitDx=0;exitDy=0;entryX=0.5;entryY=1;entryDx=0;entryDy=0;" parent="WIyWlLk6GJQsqaUBKTNV-1" source="gt4P2ikg-Aa12p5pUFLy-24" target="gt4P2ikg-Aa12p5pUFLy-21" edge="1">
          <mxGeometry width="50" height="50" relative="1" as="geometry">
            <mxPoint x="400" y="390" as="sourcePoint" />
            <mxPoint x="450" y="340" as="targetPoint" />
          </mxGeometry>
        </mxCell>
        <mxCell id="gt4P2ikg-Aa12p5pUFLy-26" value="MyPosts&lt;br&gt;(&lt;i&gt;Посты и добавление новых постов&lt;/i&gt;)" style="rounded=0;whiteSpace=wrap;html=1;" parent="WIyWlLk6GJQsqaUBKTNV-1" vertex="1">
          <mxGeometry x="370" y="320" width="150" height="60" as="geometry" />
        </mxCell>
        <mxCell id="gt4P2ikg-Aa12p5pUFLy-27" value="" style="endArrow=none;html=1;rounded=0;exitX=0.417;exitY=-0.05;exitDx=0;exitDy=0;entryX=0.5;entryY=1;entryDx=0;entryDy=0;exitPerimeter=0;" parent="WIyWlLk6GJQsqaUBKTNV-1" source="gt4P2ikg-Aa12p5pUFLy-26" target="gt4P2ikg-Aa12p5pUFLy-21" edge="1">
          <mxGeometry width="50" height="50" relative="1" as="geometry">
            <mxPoint x="260" y="340" as="sourcePoint" />
            <mxPoint x="364" y="300" as="targetPoint" />
          </mxGeometry>
        </mxCell>
        <mxCell id="gt4P2ikg-Aa12p5pUFLy-28" value="Post" style="rounded=0;whiteSpace=wrap;html=1;" parent="WIyWlLk6GJQsqaUBKTNV-1" vertex="1">
          <mxGeometry x="380" y="440" width="110" height="50" as="geometry" />
        </mxCell>
        <mxCell id="gt4P2ikg-Aa12p5pUFLy-30" value="" style="endArrow=none;html=1;rounded=0;entryX=0.5;entryY=1;entryDx=0;entryDy=0;exitX=0.5;exitY=0;exitDx=0;exitDy=0;" parent="WIyWlLk6GJQsqaUBKTNV-1" source="gt4P2ikg-Aa12p5pUFLy-28" target="gt4P2ikg-Aa12p5pUFLy-26" edge="1">
          <mxGeometry width="50" height="50" relative="1" as="geometry">
            <mxPoint x="400" y="390" as="sourcePoint" />
            <mxPoint x="450" y="340" as="targetPoint" />
          </mxGeometry>
        </mxCell>
        <mxCell id="gt4P2ikg-Aa12p5pUFLy-33" value="Navbar" style="rounded=0;whiteSpace=wrap;html=1;" parent="WIyWlLk6GJQsqaUBKTNV-1" vertex="1">
          <mxGeometry x="500" y="155" width="100" height="50" as="geometry" />
        </mxCell>
        <mxCell id="gt4P2ikg-Aa12p5pUFLy-34" value="Header" style="rounded=0;whiteSpace=wrap;html=1;" parent="WIyWlLk6GJQsqaUBKTNV-1" vertex="1">
          <mxGeometry x="630" y="155" width="100" height="50" as="geometry" />
        </mxCell>
        <mxCell id="gt4P2ikg-Aa12p5pUFLy-36" value="" style="endArrow=none;html=1;rounded=0;exitX=0.5;exitY=0;exitDx=0;exitDy=0;entryX=0.5;entryY=1;entryDx=0;entryDy=0;" parent="WIyWlLk6GJQsqaUBKTNV-1" source="gt4P2ikg-Aa12p5pUFLy-33" target="gt4P2ikg-Aa12p5pUFLy-2" edge="1">
          <mxGeometry width="50" height="50" relative="1" as="geometry">
            <mxPoint x="364" y="200" as="sourcePoint" />
            <mxPoint x="393" y="170" as="targetPoint" />
          </mxGeometry>
        </mxCell>
        <mxCell id="gt4P2ikg-Aa12p5pUFLy-37" value="" style="endArrow=none;html=1;rounded=0;exitX=0.5;exitY=0;exitDx=0;exitDy=0;entryX=0.5;entryY=1;entryDx=0;entryDy=0;" parent="WIyWlLk6GJQsqaUBKTNV-1" source="gt4P2ikg-Aa12p5pUFLy-34" target="gt4P2ikg-Aa12p5pUFLy-2" edge="1">
          <mxGeometry width="50" height="50" relative="1" as="geometry">
            <mxPoint x="570" y="205" as="sourcePoint" />
            <mxPoint x="400" y="160" as="targetPoint" />
          </mxGeometry>
        </mxCell>
        <mxCell id="gt4P2ikg-Aa12p5pUFLy-40" value="&lt;b&gt;Container component&lt;/b&gt;" style="rounded=0;whiteSpace=wrap;html=1;fillColor=none;strokeColor=#6C36EB;strokeWidth=3;" parent="WIyWlLk6GJQsqaUBKTNV-1" vertex="1">
          <mxGeometry x="550" y="20" width="140" height="60" as="geometry" />
        </mxCell>
        <mxCell id="gt4P2ikg-Aa12p5pUFLy-41" value="" style="rounded=0;whiteSpace=wrap;html=1;fillColor=none;strokeColor=#6C36EB;strokeWidth=3;" parent="WIyWlLk6GJQsqaUBKTNV-1" vertex="1">
          <mxGeometry x="350" y="310" width="190" height="80" as="geometry" />
        </mxCell>
        <mxCell id="nbsSTsRb8DVpEYrsytEX-0" value="&lt;font style=&quot;font-size: 16px;&quot;&gt;/profile&lt;/font&gt;" style="text;html=1;strokeColor=none;fillColor=none;align=center;verticalAlign=middle;whiteSpace=wrap;rounded=0;rotation=0;" vertex="1" parent="WIyWlLk6GJQsqaUBKTNV-1">
          <mxGeometry x="384" y="170" width="60" height="30" as="geometry" />
        </mxCell>
        <mxCell id="nbsSTsRb8DVpEYrsytEX-2" value="Users&lt;br&gt;(&lt;i&gt;&lt;font style=&quot;font-size: 10px;&quot;&gt;другие пользователи на которых пжно подписаться/отписаться&lt;/font&gt;&lt;/i&gt;)" style="rounded=0;whiteSpace=wrap;html=1;" vertex="1" parent="WIyWlLk6GJQsqaUBKTNV-1">
          <mxGeometry x="90" y="570" width="170" height="70" as="geometry" />
        </mxCell>
        <mxCell id="nbsSTsRb8DVpEYrsytEX-3" value="" style="endArrow=none;html=1;rounded=0;exitX=0.5;exitY=0;exitDx=0;exitDy=0;entryX=0.5;entryY=1;entryDx=0;entryDy=0;" edge="1" parent="WIyWlLk6GJQsqaUBKTNV-1" source="nbsSTsRb8DVpEYrsytEX-2" target="gt4P2ikg-Aa12p5pUFLy-2">
          <mxGeometry width="50" height="50" relative="1" as="geometry">
            <mxPoint x="170" y="570" as="sourcePoint" />
            <mxPoint x="240" y="200" as="targetPoint" />
            <Array as="points">
              <mxPoint x="170" y="280" />
            </Array>
          </mxGeometry>
        </mxCell>
        <mxCell id="nbsSTsRb8DVpEYrsytEX-8" value="&lt;span style=&quot;font-size: 16px;&quot;&gt;/users&lt;br&gt;&lt;/span&gt;" style="text;html=1;strokeColor=none;fillColor=none;align=center;verticalAlign=middle;whiteSpace=wrap;rounded=0;rotation=-30;" vertex="1" parent="WIyWlLk6GJQsqaUBKTNV-1">
          <mxGeometry x="200" y="210" width="60" height="30" as="geometry" />
        </mxCell>
      </root>
    </mxGraphModel>
  </diagram>
</mxfile>
